<svg width="12" height="12" viewBox="0 0 12 12" fill="none" xmlns="http://www.w3.org/2000/svg">
<path d="M12 0H0V12H12V0Z" fill="#5D6C82"/>
<path d="M9.45974 5.77085L6.18841 9.04216C5.78764 9.44291 5.24409 9.66806 4.67733 9.66806C4.11057 9.66806 3.56702 9.44291 3.16625 9.04216C2.76549 8.6414 2.54034 8.09785 2.54034 7.53109C2.54034 6.96433 2.76549 6.42078 3.16625 6.02003L6.43758 2.74872C6.70476 2.48155 7.06712 2.33145 7.44497 2.33145C7.82281 2.33145 8.18518 2.48155 8.45235 2.74872C8.71953 3.01589 8.86962 3.37826 8.86962 3.7561C8.86962 4.13394 8.71953 4.4963 8.45235 4.76347L5.17746 8.03478C5.04387 8.16836 4.86269 8.24341 4.67377 8.24341C4.48485 8.24341 4.30366 8.16836 4.17008 8.03478C4.03649 7.90119 3.96144 7.72001 3.96144 7.53109C3.96144 7.34217 4.03649 7.16099 4.17008 7.0274L7.19223 4.00883" stroke="#F3F5F8" stroke-width="0.75" stroke-linecap="round" stroke-linejoin="round"/>
</svg>
