<svg width="60" height="28" viewBox="0 0 60 28" fill="none" xmlns="http://www.w3.org/2000/svg">
<rect x="0.5" y="0.5" width="59" height="27" rx="1.5" fill="white"/>
<rect x="0.5" y="0.5" width="59" height="27" rx="1.5" stroke="#B5BACB"/>
<path d="M15.3365 19.156C13.0325 19.156 11.3765 17.464 11.3765 14.608C11.3765 11.764 13.0805 10.036 15.4085 10.036C16.6325 10.036 17.4365 10.588 17.9405 11.128L17.3405 11.848C16.8965 11.38 16.3325 11.008 15.4325 11.008C13.6685 11.008 12.5165 12.376 12.5165 14.572C12.5165 16.792 13.5605 18.184 15.4565 18.184C16.0805 18.184 16.6925 17.992 17.0405 17.668V15.364H15.1805V14.44H18.0605V18.136C17.4965 18.724 16.5245 19.156 15.3365 19.156ZM19.5539 19V10.192H22.3139C24.1019 10.192 25.3859 10.84 25.3859 12.676C25.3859 14.044 24.5939 14.86 23.3939 15.148L25.6499 19H24.3899L22.2539 15.268H20.6699V19H19.5539ZM20.6699 14.368H22.1459C23.5259 14.368 24.2819 13.816 24.2819 12.676C24.2819 11.512 23.5259 11.104 22.1459 11.104H20.6699V14.368ZM29.8348 19.156C27.6268 19.156 26.0788 17.392 26.0788 14.572C26.0788 11.752 27.6268 10.036 29.8348 10.036C32.0428 10.036 33.5908 11.752 33.5908 14.572C33.5908 17.392 32.0428 19.156 29.8348 19.156ZM29.8348 18.184C31.4068 18.184 32.4508 16.768 32.4508 14.572C32.4508 12.364 31.4068 11.008 29.8348 11.008C28.2508 11.008 27.2188 12.364 27.2188 14.572C27.2188 16.768 28.2508 18.184 29.8348 18.184ZM38.0091 19.156C36.2211 19.156 34.8531 18.196 34.8531 15.364V10.192H35.9691V15.4C35.9691 17.524 36.8691 18.184 38.0091 18.184C39.1851 18.184 40.1091 17.524 40.1091 15.4V10.192H41.1771V15.364C41.1771 18.196 39.8091 19.156 38.0091 19.156ZM42.9375 19V10.192H45.4575C47.4255 10.192 48.7455 10.864 48.7455 12.784C48.7455 14.644 47.4375 15.508 45.5055 15.508H44.0535V19H42.9375ZM44.0535 14.608H45.3615C46.9095 14.608 47.6415 14.044 47.6415 12.784C47.6415 11.512 46.8615 11.104 45.3135 11.104H44.0535V14.608Z" fill="#5A6786"/>
</svg>
