<svg width="17" height="17" viewBox="0 0 17 17" fill="none" xmlns="http://www.w3.org/2000/svg">
<path d="M6.45361 9.7644L10.5516 12.1524M10.5456 5.5644L6.45361 7.9524M13.8996 4.6584C13.8996 5.65251 13.0937 6.4584 12.0996 6.4584C11.1055 6.4584 10.2996 5.65251 10.2996 4.6584C10.2996 3.66429 11.1055 2.8584 12.0996 2.8584C13.0937 2.8584 13.8996 3.66429 13.8996 4.6584ZM6.69961 8.8584C6.69961 9.85251 5.89372 10.6584 4.89961 10.6584C3.9055 10.6584 3.09961 9.85251 3.09961 8.8584C3.09961 7.86429 3.9055 7.0584 4.89961 7.0584C5.89372 7.0584 6.69961 7.86429 6.69961 8.8584ZM13.8996 13.0584C13.8996 14.0525 13.0937 14.8584 12.0996 14.8584C11.1055 14.8584 10.2996 14.0525 10.2996 13.0584C10.2996 12.0643 11.1055 11.2584 12.0996 11.2584C13.0937 11.2584 13.8996 12.0643 13.8996 13.0584Z" stroke="#5A6786" stroke-linecap="round" stroke-linejoin="round"/>
</svg>
