<svg width="13" height="13" viewBox="0 0 13 13" fill="none" xmlns="http://www.w3.org/2000/svg">
<path d="M12.4355 0.958984H0.435547V12.959H12.4355V0.958984Z" fill="#295695"/>
<path d="M8.82051 5.79534C8.95416 5.53715 9.05291 5.32597 9.11672 5.16191C9.18051 4.99786 9.21241 4.86115 9.21241 4.75177C9.21241 4.66063 9.20175 4.58774 9.18051 4.53307C9.15924 4.47836 9.11972 4.43282 9.06202 4.39636C9.00429 4.3599 8.92531 4.33413 8.82507 4.31889L8.89343 4.01812H10.8302L10.7618 4.31889C10.6615 4.33713 10.5727 4.37356 10.4952 4.42824C10.4177 4.48292 10.344 4.55584 10.2742 4.64697C10.2043 4.73811 10.1359 4.8422 10.0691 4.95913C10.0023 5.07612 9.91263 5.23939 9.80028 5.44901L7.18911 10.2703H6.09544L6.08633 7.33562V6.56093C6.08633 6.36346 6.08783 6.15692 6.09088 5.94116H6.03165C5.93141 6.15689 5.8463 6.33761 5.77646 6.48342L3.87164 10.2703H2.77795L2.68681 5.42163C2.68067 5.13306 2.65866 4.9143 2.62073 4.76543C2.58272 4.61662 2.53189 4.50953 2.46807 4.44416C2.40429 4.37888 2.31462 4.33707 2.19922 4.31886L2.26756 4.0181H4.60073L4.5324 4.31886C4.44423 4.33105 4.36905 4.35153 4.30682 4.38038C4.2445 4.40929 4.19291 4.4518 4.15187 4.50798C4.11085 4.56421 4.08195 4.63634 4.06529 4.72442C4.04854 4.81256 4.03867 4.893 4.03567 4.96595L4.03112 5.49911L4.01287 7.21255C4.00982 7.46474 4.00218 7.7685 3.9901 8.12394L3.9673 8.66624H4.02653C4.09637 8.51129 4.17158 8.35028 4.25211 8.18317C4.33259 8.01614 4.47919 7.71994 4.69187 7.29455L6.33694 4.01807H7.33492L7.33947 7.00289L7.34403 7.40845C7.34403 7.83381 7.33336 8.25306 7.31215 8.66618H7.37138C7.51414 8.36847 7.77083 7.85353 8.14152 7.12135L8.82051 5.79534Z" fill="white"/>
</svg>
