<svg width="13" height="13" viewBox="0 0 13 13" fill="none" xmlns="http://www.w3.org/2000/svg">
<path d="M12.9355 0.958984H0.935547V12.959H12.9355V0.958984Z" fill="#ED1F24"/>
<path d="M10.6379 7.82464C10.6294 7.76326 10.5801 7.68622 10.5271 7.63446C10.3754 7.48521 10.042 7.40697 9.53408 7.39975C9.18982 7.39614 8.77575 7.42623 8.34002 7.48761C8.14502 7.37567 7.94401 7.2529 7.78633 7.10485C7.36143 6.70884 7.00754 6.15876 6.78607 5.55331C6.80051 5.49674 6.81255 5.44739 6.82458 5.39683C6.82458 5.39683 7.06291 4.03909 7.00032 3.57928C6.9919 3.51669 6.98588 3.49864 6.96903 3.44929L6.94856 3.39633C6.88356 3.24587 6.75597 3.08698 6.55616 3.09541L6.4382 3.0918H6.43579C6.21191 3.0918 6.03136 3.20615 5.98321 3.37586C5.83877 3.9103 5.98802 4.71074 6.25885 5.7459L6.18904 5.91441C5.99525 6.38866 5.7521 6.86532 5.53785 7.2854L5.51016 7.33956C5.28387 7.78131 5.07924 8.15686 4.89267 8.47463L4.70129 8.57574C4.68684 8.58296 4.35824 8.75749 4.2812 8.80323C3.6276 9.19442 3.19427 9.63738 3.12205 9.98885C3.09918 10.102 3.11603 10.2452 3.23279 10.3114L3.41816 10.4053C3.49881 10.445 3.58427 10.4655 3.67093 10.4655C4.13676 10.4655 4.67721 9.88533 5.42229 8.58537C6.28172 8.30611 7.26152 8.0726 8.11975 7.94501C8.77335 8.31213 9.57741 8.56851 10.0854 8.56851C10.1756 8.56851 10.2539 8.56009 10.3165 8.54324C10.414 8.51676 10.4958 8.46139 10.5464 8.38676C10.6451 8.23871 10.6643 8.03408 10.6379 7.82464ZM3.56982 10.1128C3.65408 9.88052 3.99111 9.42072 4.48823 9.01387C4.51953 8.9886 4.59657 8.91638 4.66638 8.84897C4.14639 9.6783 3.79852 10.0081 3.56982 10.1128ZM6.51403 3.33253C6.66329 3.33253 6.74875 3.70928 6.75597 4.06316C6.7632 4.41704 6.68014 4.665 6.57783 4.84916C6.49237 4.57713 6.45144 4.14862 6.45144 3.86817C6.45144 3.86817 6.44542 3.33253 6.51403 3.33253ZM5.63534 8.16408C5.74007 7.97751 5.8484 7.78011 5.95914 7.57187C6.22996 7.06031 6.40089 6.66069 6.52727 6.33209C6.78005 6.79189 7.09541 7.18308 7.46494 7.49604C7.51189 7.53456 7.56124 7.57428 7.61179 7.614C6.85949 7.76205 6.2083 7.94381 5.63534 8.16408ZM10.3815 8.12195C10.3357 8.14964 10.2045 8.16649 10.1203 8.16649C9.84824 8.16649 9.51 8.04251 9.03695 7.83909C9.21871 7.82585 9.38602 7.81862 9.53528 7.81862C9.80852 7.81862 9.88916 7.81742 10.1576 7.88603C10.4248 7.95464 10.4284 8.09306 10.3815 8.12195Z" fill="white"/>
</svg>
