<svg width="13" height="13" viewBox="0 0 13 13" fill="none" xmlns="http://www.w3.org/2000/svg">
<path d="M12.4355 0.958984H0.435547V12.959H12.4355V0.958984Z" fill="#0973BA"/>
<path d="M5.69238 3.38223C5.69238 3.38223 6.94852 3.36842 8.03902 4.56938C8.03902 4.56938 7.52829 2.83009 6.4516 2.85769C6.4516 2.85769 5.81659 2.78865 5.69238 3.38223Z" fill="white"/>
<path d="M8.17734 5.12156C8.17734 5.12156 6.97036 3.69975 5.36133 3.83781C5.36133 3.83781 4.04997 3.76876 4.21564 5.09395C4.21564 5.09395 5.8727 4.69365 6.72133 5.19058C6.72133 5.19058 4.28463 5.50808 4.42267 7.48203C4.42267 7.48203 4.38129 9.1385 6.50707 9.00044C6.50707 9.00044 8.79855 8.80716 8.53625 6.06019C8.53625 6.06019 8.98334 6.10163 9.33688 6.32249C9.33688 6.32249 9.70454 5.09107 8.17734 5.12156ZM6.86596 7.99276C5.66503 8.36548 5.69264 7.344 5.69264 7.344C5.77546 6.03261 7.39051 5.9912 7.39051 5.9912C8.21869 7.42679 6.86596 7.99276 6.86596 7.99276Z" fill="white"/>
<path d="M6.56206 10.9193C6.87464 10.9193 7.12803 10.6659 7.12803 10.3533C7.12803 10.0407 6.87464 9.78735 6.56206 9.78735C6.24949 9.78735 5.99609 10.0407 5.99609 10.3533C5.99609 10.6659 6.24949 10.9193 6.56206 10.9193Z" fill="white"/>
</svg>
