<svg width="13" height="13" viewBox="0 0 13 13" fill="none" xmlns="http://www.w3.org/2000/svg">
<path d="M12.4355 0.958984H0.435547V12.959H12.4355V0.958984Z" fill="#FFB800"/>
<path d="M9.88329 1.10034H8.81445V1.60236H9.88329V1.10034Z" fill="white"/>
<path d="M10.9526 1.60254H9.88379V2.10458H10.9526V1.60254Z" fill="white"/>
<path d="M9.88329 2.10449H8.81445V2.60651H9.88329V2.10449Z" fill="white"/>
<path d="M10.9526 2.60645H9.88379V3.10846H10.9526V2.60645Z" fill="white"/>
<path d="M9.88804 3.1084C9.4596 3.1084 9.1123 3.45569 9.1123 3.88414V5.11869C9.1123 5.54711 9.45957 5.89443 9.88804 5.89443C10.3165 5.89443 10.6638 5.54711 10.6638 5.11869V3.88414C10.6638 3.45569 10.3165 3.1084 9.88804 3.1084ZM10.1457 5.45657H9.63039V4.34955H10.1457V5.45657Z" fill="white"/>
<path d="M2.09422 6.99976H5.22393V7.71505L3.21493 9.80966H5.29715V10.5787H1.90137V9.83653L3.88935 7.76389H2.09419L2.09422 6.99976Z" fill="white"/>
<path d="M5.83887 6.99976H6.94722V10.5786H5.83887V6.99976Z" fill="white"/>
<path d="M7.73633 6.99976H9.57458C9.97494 6.99976 10.2748 7.09497 10.4742 7.28539C10.6735 7.4758 10.7733 7.74678 10.7733 8.09832C10.7733 8.45961 10.6646 8.74202 10.4473 8.94545C10.2301 9.14891 9.89848 9.25059 9.45256 9.25059H8.84714V10.5786H7.73633V6.99976ZM8.84714 8.52555H9.11811C9.33127 8.52555 9.48102 8.48855 9.56732 8.41447C9.65356 8.34044 9.69667 8.24563 9.69667 8.13005C9.69667 8.01776 9.65925 7.92255 9.58438 7.84442C9.5095 7.7663 9.36869 7.72724 9.16201 7.72724H8.8471V8.52555H8.84714Z" fill="white"/>
</svg>
