<svg width="13" height="13" viewBox="0 0 13 13" fill="none" xmlns="http://www.w3.org/2000/svg">
<path d="M12.9355 0.958984H0.935547V12.959H12.9355V0.958984Z" fill="#D14527"/>
<path d="M4.16797 3.50049H7.59716C8.34399 3.50049 8.90337 3.67809 9.2753 4.03331C9.64717 4.38852 9.83318 4.89401 9.83318 5.54979C9.83318 6.22378 9.63054 6.75055 9.22521 7.13006C8.81993 7.5096 8.20129 7.69931 7.36946 7.69931H6.24007V10.1767H4.16797V3.50049ZM6.24007 6.34677H6.74556C7.14329 6.34677 7.42255 6.27775 7.5835 6.13955C7.74439 6.00143 7.82483 5.82461 7.82483 5.60902C7.82483 5.39954 7.75494 5.22193 7.61538 5.0762C7.4757 4.93047 7.21304 4.85761 6.82751 4.85761H6.24004V6.34677H6.24007Z" fill="white"/>
</svg>
